# xmcd
#
# Track frame offsets:
#	150
#	20463
#	40330
#	62907
#	88258
#	109874
#	128548
#	150146
#	167971
#	184977
#	204933
#
# Disc length: 2986 seconds
#
# Revision: 1
# Processed by: cddbd v1.5.2PL0 Copyright (c) Steve Scherf et al.
# Submitted via: audiograbber 1.83.01
#
DISCID=8c0ba80b
DTITLE=American Mars - Western Sides
DYEAR=2007
DGENRE=alt. Country
TTITLE0=Long Walk Home
TTITLE1=Who Here?
TTITLE2=Anna Marie
TTITLE3=Better Angels
TTITLE4=Westernside
TTITLE5=Democracity
TTITLE6=Make It Up
TTITLE7=Marionette
TTITLE8=Do Me A Favor
TTITLE9=Sunray
TTITLE10=Fading Away
EXTD=
EXTT0=
EXTT1=
EXTT2=
EXTT3=
EXTT4=
EXTT5=
EXTT6=
EXTT7=
EXTT8=
EXTT9=
EXTT10=
PLAYORDER=
